<svg width="13" height="8" viewBox="0 0 13 8" fill="none" xmlns="http://www.w3.org/2000/svg">
<path d="M0.24 1.14487L1.226 0.214873C1.28899 0.14709 1.36528 0.0930237 1.4501 0.0560527C1.53493 0.0190817 1.62647 0 1.719 0C1.81153 0 1.90307 0.0190817 1.9879 0.0560527C2.07272 0.0930237 2.14901 0.14709 2.212 0.214873L6.007 3.79287L9.801 0.214873C9.86399 0.14709 9.94028 0.0930237 10.0251 0.0560527C10.1099 0.0190817 10.2015 0 10.294 0C10.3865 0 10.4781 0.0190817 10.5629 0.0560527C10.6477 0.0930237 10.724 0.14709 10.787 0.214873L11.773 1.14487C11.844 1.19982 11.9015 1.2703 11.941 1.3509C11.9806 1.43151 12.0011 1.52009 12.0011 1.60987C12.0011 1.69965 11.9806 1.78824 11.941 1.86884C11.9015 1.94945 11.844 2.01992 11.773 2.07487L6.461 7.08487C6.39801 7.15266 6.32172 7.20672 6.2369 7.24369C6.15207 7.28067 6.06053 7.29975 5.968 7.29975C5.87547 7.29975 5.78393 7.28067 5.6991 7.24369C5.61428 7.20672 5.53799 7.15266 5.475 7.08487L0.164 2.07487C0.105755 2.00983 0.0613661 1.93362 0.0335378 1.85086C0.00570956 1.76811 -0.00497461 1.68056 0.00213642 1.59354C0.00924744 1.50652 0.0340046 1.42187 0.0748991 1.34473C0.115794 1.26759 0.171969 1.19959 0.24 1.14487Z" fill="#151515"/>
</svg>
